<mxfile host="65bd71144e">
    <diagram id="hznFYA9AvVIzFEJfuioR" name="Page-1">
        <mxGraphModel dx="1630" dy="1215" grid="1" gridSize="10" guides="1" tooltips="1" connect="1" arrows="1" fold="1" page="1" pageScale="1" pageWidth="850" pageHeight="1100" math="0" shadow="0">
            <root>
                <mxCell id="0"/>
                <mxCell id="1" parent="0"/>
                <mxCell id="2" value="Method and Route" style="rounded=0;whiteSpace=wrap;html=1;fillColor=none;" vertex="1" parent="1">
                    <mxGeometry x="60" y="120" width="180" height="60" as="geometry"/>
                </mxCell>
                <mxCell id="3" value="Body or Query String&amp;nbsp;" style="rounded=0;whiteSpace=wrap;html=1;fillColor=#76608a;fontColor=#ffffff;strokeColor=#432D57;" vertex="1" parent="1">
                    <mxGeometry x="290" y="120" width="190" height="60" as="geometry"/>
                </mxCell>
                <mxCell id="4" value="Description&amp;nbsp;" style="rounded=0;whiteSpace=wrap;html=1;fillColor=#76608a;fontColor=#ffffff;strokeColor=#432D57;" vertex="1" parent="1">
                    <mxGeometry x="520" y="120" width="190" height="60" as="geometry"/>
                </mxCell>
                <mxCell id="7" value="POST / auth/signup&amp;nbsp;" style="rounded=0;whiteSpace=wrap;html=1;fillColor=#647687;fontColor=#ffffff;strokeColor=#314354;" vertex="1" parent="1">
                    <mxGeometry x="60" y="200" width="190" height="60" as="geometry"/>
                </mxCell>
                <mxCell id="8" value="POST / auth/signin" style="rounded=0;whiteSpace=wrap;html=1;fillColor=#647687;fontColor=#ffffff;strokeColor=#314354;" vertex="1" parent="1">
                    <mxGeometry x="60" y="300" width="190" height="60" as="geometry"/>
                </mxCell>
                <mxCell id="9" value="GET/user /: {id}" style="rounded=0;whiteSpace=wrap;html=1;fillColor=#647687;fontColor=#ffffff;strokeColor=#314354;" vertex="1" parent="1">
                    <mxGeometry x="60" y="390" width="190" height="60" as="geometry"/>
                </mxCell>
                <mxCell id="10" value="PATCH/ user / :{id}" style="rounded=0;whiteSpace=wrap;html=1;fillColor=#647687;fontColor=#ffffff;strokeColor=#314354;" vertex="1" parent="1">
                    <mxGeometry x="60" y="480" width="190" height="60" as="geometry"/>
                </mxCell>
                <mxCell id="11" value="DELETE/ user/ : { id }" style="rounded=0;whiteSpace=wrap;html=1;fillColor=#647687;fontColor=#ffffff;strokeColor=#314354;" vertex="1" parent="1">
                    <mxGeometry x="60" y="570" width="190" height="60" as="geometry"/>
                </mxCell>
                <mxCell id="12" value="POST?user =3498/ order" style="rounded=0;whiteSpace=wrap;html=1;fillColor=#6d8764;fontColor=#ffffff;strokeColor=#3A5431;" vertex="1" parent="1">
                    <mxGeometry x="760" y="210" width="190" height="60" as="geometry"/>
                </mxCell>
                <mxCell id="13" value="GET/ order / {id}" style="rounded=0;whiteSpace=wrap;html=1;fillColor=#6d8764;fontColor=#ffffff;strokeColor=#3A5431;" vertex="1" parent="1">
                    <mxGeometry x="760" y="290" width="190" height="60" as="geometry"/>
                </mxCell>
                <mxCell id="15" value="DELETE/ order / {id}" style="rounded=0;whiteSpace=wrap;html=1;fillColor=#6d8764;fontColor=#ffffff;strokeColor=#3A5431;" vertex="1" parent="1">
                    <mxGeometry x="760" y="380" width="190" height="60" as="geometry"/>
                </mxCell>
                <mxCell id="16" value="PATCH/ order / {id}" style="rounded=0;whiteSpace=wrap;html=1;fillColor=#6d8764;fontColor=#ffffff;strokeColor=#3A5431;" vertex="1" parent="1">
                    <mxGeometry x="760" y="470" width="190" height="60" as="geometry"/>
                </mxCell>
                <mxCell id="17" value="Body - {email ,password}" style="rounded=0;whiteSpace=wrap;html=1;fillColor=#647687;fontColor=#ffffff;strokeColor=#314354;" vertex="1" parent="1">
                    <mxGeometry x="300" y="200" width="190" height="60" as="geometry"/>
                </mxCell>
                <mxCell id="18" value="Body- { email , password }" style="rounded=0;whiteSpace=wrap;html=1;fillColor=#647687;fontColor=#ffffff;strokeColor=#314354;" vertex="1" parent="1">
                    <mxGeometry x="300" y="300" width="190" height="60" as="geometry"/>
                </mxCell>
                <mxCell id="19" value="Params - id" style="rounded=0;whiteSpace=wrap;html=1;fillColor=#647687;fontColor=#ffffff;strokeColor=#314354;" vertex="1" parent="1">
                    <mxGeometry x="300" y="390" width="190" height="60" as="geometry"/>
                </mxCell>
                <mxCell id="20" value="Body - {&amp;nbsp; }" style="rounded=0;whiteSpace=wrap;html=1;fillColor=#647687;fontColor=#ffffff;strokeColor=#314354;" vertex="1" parent="1">
                    <mxGeometry x="300" y="480" width="190" height="60" as="geometry"/>
                </mxCell>
                <mxCell id="21" value="Params - id&amp;nbsp;" style="rounded=0;whiteSpace=wrap;html=1;fillColor=#647687;fontColor=#ffffff;strokeColor=#314354;" vertex="1" parent="1">
                    <mxGeometry x="300" y="570" width="190" height="60" as="geometry"/>
                </mxCell>
                <mxCell id="22" value="Body - { name , description , ...}&lt;br&gt;Query String - user&amp;nbsp;" style="rounded=0;whiteSpace=wrap;html=1;fillColor=#6d8764;fontColor=#ffffff;strokeColor=#3A5431;" vertex="1" parent="1">
                    <mxGeometry x="1000" y="210" width="190" height="60" as="geometry"/>
                </mxCell>
                <mxCell id="23" value="Params - { id }" style="rounded=0;whiteSpace=wrap;html=1;fillColor=#6d8764;fontColor=#ffffff;strokeColor=#3A5431;" vertex="1" parent="1">
                    <mxGeometry x="1000" y="290" width="190" height="60" as="geometry"/>
                </mxCell>
                <mxCell id="24" value="Params - { id }" style="rounded=0;whiteSpace=wrap;html=1;fillColor=#6d8764;fontColor=#ffffff;strokeColor=#3A5431;" vertex="1" parent="1">
                    <mxGeometry x="1000" y="380" width="190" height="60" as="geometry"/>
                </mxCell>
                <mxCell id="25" value="Body , { }&lt;br&gt;,Params - { id }" style="rounded=0;whiteSpace=wrap;html=1;fillColor=#6d8764;fontColor=#ffffff;strokeColor=#3A5431;" vertex="1" parent="1">
                    <mxGeometry x="1000" y="470" width="190" height="60" as="geometry"/>
                </mxCell>
                <mxCell id="26" value="Creating user account&amp;nbsp;" style="rounded=0;whiteSpace=wrap;html=1;fillColor=#647687;fontColor=#ffffff;strokeColor=#314354;" vertex="1" parent="1">
                    <mxGeometry x="530" y="200" width="190" height="60" as="geometry"/>
                </mxCell>
                <mxCell id="27" value="login by email and password&amp;nbsp;" style="rounded=0;whiteSpace=wrap;html=1;fillColor=#647687;fontColor=#ffffff;strokeColor=#314354;" vertex="1" parent="1">
                    <mxGeometry x="530" y="300" width="190" height="60" as="geometry"/>
                </mxCell>
                <mxCell id="28" value="read user profile&amp;nbsp;" style="rounded=0;whiteSpace=wrap;html=1;fillColor=#647687;fontColor=#ffffff;strokeColor=#314354;" vertex="1" parent="1">
                    <mxGeometry x="530" y="390" width="190" height="60" as="geometry"/>
                </mxCell>
                <mxCell id="29" value="update user account&amp;nbsp;" style="rounded=0;whiteSpace=wrap;html=1;fillColor=#647687;fontColor=#ffffff;strokeColor=#314354;" vertex="1" parent="1">
                    <mxGeometry x="530" y="480" width="190" height="60" as="geometry"/>
                </mxCell>
                <mxCell id="30" value="delete user account&amp;nbsp;" style="rounded=0;whiteSpace=wrap;html=1;fillColor=#647687;fontColor=#ffffff;strokeColor=#314354;" vertex="1" parent="1">
                    <mxGeometry x="530" y="570" width="190" height="60" as="geometry"/>
                </mxCell>
                <mxCell id="31" value="Create a new Order" style="rounded=0;whiteSpace=wrap;html=1;fillColor=#6d8764;fontColor=#ffffff;strokeColor=#3A5431;" vertex="1" parent="1">
                    <mxGeometry x="1230" y="210" width="190" height="60" as="geometry"/>
                </mxCell>
                <mxCell id="32" value="read order&amp;nbsp;" style="rounded=0;whiteSpace=wrap;html=1;fillColor=#6d8764;fontColor=#ffffff;strokeColor=#3A5431;" vertex="1" parent="1">
                    <mxGeometry x="1230" y="290" width="190" height="60" as="geometry"/>
                </mxCell>
                <mxCell id="33" value="delete Order&amp;nbsp;" style="rounded=0;whiteSpace=wrap;html=1;fillColor=#6d8764;fontColor=#ffffff;strokeColor=#3A5431;" vertex="1" parent="1">
                    <mxGeometry x="1230" y="380" width="190" height="60" as="geometry"/>
                </mxCell>
                <mxCell id="34" value="update Order&amp;nbsp;" style="rounded=0;whiteSpace=wrap;html=1;fillColor=#6d8764;fontColor=#ffffff;strokeColor=#3A5431;" vertex="1" parent="1">
                    <mxGeometry x="1230" y="470" width="190" height="60" as="geometry"/>
                </mxCell>
                <mxCell id="37" value="POST/ Product" style="rounded=0;whiteSpace=wrap;html=1;fillColor=#00194A;fontColor=#ffffff;strokeColor=#001DBC;" vertex="1" parent="1">
                    <mxGeometry x="1470" y="210" width="190" height="60" as="geometry"/>
                </mxCell>
                <mxCell id="38" value="GET/ Product/ {id}" style="rounded=0;whiteSpace=wrap;html=1;fillColor=#00194A;fontColor=#ffffff;strokeColor=#001DBC;" vertex="1" parent="1">
                    <mxGeometry x="1470" y="290" width="190" height="60" as="geometry"/>
                </mxCell>
                <mxCell id="39" value="DELETE/ Product/ {id}" style="rounded=0;whiteSpace=wrap;html=1;fillColor=#00194A;fontColor=#ffffff;strokeColor=#001DBC;" vertex="1" parent="1">
                    <mxGeometry x="1470" y="380" width="190" height="60" as="geometry"/>
                </mxCell>
                <mxCell id="40" value="PATCH/ Product/ {id}" style="rounded=0;whiteSpace=wrap;html=1;fillColor=#00194A;fontColor=#ffffff;strokeColor=#001DBC;" vertex="1" parent="1">
                    <mxGeometry x="1470" y="470" width="190" height="60" as="geometry"/>
                </mxCell>
                <mxCell id="41" value="Body - { name , description , ...}" style="rounded=0;whiteSpace=wrap;html=1;fillColor=#00194A;fontColor=#ffffff;strokeColor=#001DBC;" vertex="1" parent="1">
                    <mxGeometry x="1710" y="210" width="190" height="60" as="geometry"/>
                </mxCell>
                <mxCell id="42" value="Params - { id }" style="rounded=0;whiteSpace=wrap;html=1;fillColor=#00194A;fontColor=#ffffff;strokeColor=#001DBC;" vertex="1" parent="1">
                    <mxGeometry x="1710" y="290" width="190" height="60" as="geometry"/>
                </mxCell>
                <mxCell id="43" value="Params - { id }" style="rounded=0;whiteSpace=wrap;html=1;fillColor=#00194A;fontColor=#ffffff;strokeColor=#001DBC;" vertex="1" parent="1">
                    <mxGeometry x="1710" y="380" width="190" height="60" as="geometry"/>
                </mxCell>
                <mxCell id="44" value="Body , { }&lt;br&gt;,Params - { id }" style="rounded=0;whiteSpace=wrap;html=1;fillColor=#00194A;fontColor=#ffffff;strokeColor=#001DBC;" vertex="1" parent="1">
                    <mxGeometry x="1710" y="470" width="190" height="60" as="geometry"/>
                </mxCell>
                <mxCell id="45" value="Create a new Product" style="rounded=0;whiteSpace=wrap;html=1;fillColor=#00194A;fontColor=#ffffff;strokeColor=#001DBC;" vertex="1" parent="1">
                    <mxGeometry x="1940" y="210" width="190" height="60" as="geometry"/>
                </mxCell>
                <mxCell id="46" value="read Product" style="rounded=0;whiteSpace=wrap;html=1;fillColor=#00194A;fontColor=#ffffff;strokeColor=#001DBC;" vertex="1" parent="1">
                    <mxGeometry x="1940" y="290" width="190" height="60" as="geometry"/>
                </mxCell>
                <mxCell id="47" value="delete Product" style="rounded=0;whiteSpace=wrap;html=1;fillColor=#00194A;fontColor=#ffffff;strokeColor=#001DBC;" vertex="1" parent="1">
                    <mxGeometry x="1940" y="380" width="190" height="60" as="geometry"/>
                </mxCell>
                <mxCell id="48" value="update Product" style="rounded=0;whiteSpace=wrap;html=1;fillColor=#00194A;fontColor=#ffffff;strokeColor=#001DBC;" vertex="1" parent="1">
                    <mxGeometry x="1940" y="470" width="190" height="60" as="geometry"/>
                </mxCell>
                <mxCell id="52" value="POST/ store" style="rounded=0;whiteSpace=wrap;html=1;fillColor=#27005E;fontColor=#ffffff;strokeColor=#3700CC;" vertex="1" parent="1">
                    <mxGeometry x="2190" y="210" width="190" height="60" as="geometry"/>
                </mxCell>
                <mxCell id="53" value="GET/ store/ {id}" style="rounded=0;whiteSpace=wrap;html=1;fillColor=#27005E;fontColor=#ffffff;strokeColor=#3700CC;" vertex="1" parent="1">
                    <mxGeometry x="2190" y="290" width="190" height="60" as="geometry"/>
                </mxCell>
                <mxCell id="54" value="DELETE/ store/ {id}" style="rounded=0;whiteSpace=wrap;html=1;fillColor=#27005E;fontColor=#ffffff;strokeColor=#3700CC;" vertex="1" parent="1">
                    <mxGeometry x="2190" y="380" width="190" height="60" as="geometry"/>
                </mxCell>
                <mxCell id="55" value="PATCH/ store/ {id}" style="rounded=0;whiteSpace=wrap;html=1;fillColor=#27005E;fontColor=#ffffff;strokeColor=#3700CC;" vertex="1" parent="1">
                    <mxGeometry x="2190" y="470" width="190" height="60" as="geometry"/>
                </mxCell>
                <mxCell id="56" value="Body - { name , description , ...}" style="rounded=0;whiteSpace=wrap;html=1;fillColor=#27005E;fontColor=#ffffff;strokeColor=#3700CC;" vertex="1" parent="1">
                    <mxGeometry x="2430" y="210" width="190" height="60" as="geometry"/>
                </mxCell>
                <mxCell id="57" value="Params - { id }" style="rounded=0;whiteSpace=wrap;html=1;fillColor=#27005E;fontColor=#ffffff;strokeColor=#3700CC;" vertex="1" parent="1">
                    <mxGeometry x="2430" y="290" width="190" height="60" as="geometry"/>
                </mxCell>
                <mxCell id="58" value="Params - { id }" style="rounded=0;whiteSpace=wrap;html=1;fillColor=#27005E;fontColor=#ffffff;strokeColor=#3700CC;" vertex="1" parent="1">
                    <mxGeometry x="2430" y="380" width="190" height="60" as="geometry"/>
                </mxCell>
                <mxCell id="59" value="Body , { }&lt;br&gt;,Params - { id }" style="rounded=0;whiteSpace=wrap;html=1;fillColor=#27005E;fontColor=#ffffff;strokeColor=#3700CC;" vertex="1" parent="1">
                    <mxGeometry x="2430" y="470" width="190" height="60" as="geometry"/>
                </mxCell>
                <mxCell id="60" value="Create a new store" style="rounded=0;whiteSpace=wrap;html=1;fillColor=#27005E;fontColor=#ffffff;strokeColor=#3700CC;" vertex="1" parent="1">
                    <mxGeometry x="2660" y="210" width="190" height="60" as="geometry"/>
                </mxCell>
                <mxCell id="61" value="read store" style="rounded=0;whiteSpace=wrap;html=1;fillColor=#27005E;fontColor=#ffffff;strokeColor=#3700CC;" vertex="1" parent="1">
                    <mxGeometry x="2660" y="290" width="190" height="60" as="geometry"/>
                </mxCell>
                <mxCell id="62" value="delete store" style="rounded=0;whiteSpace=wrap;html=1;fillColor=#27005E;fontColor=#ffffff;strokeColor=#3700CC;" vertex="1" parent="1">
                    <mxGeometry x="2660" y="380" width="190" height="60" as="geometry"/>
                </mxCell>
                <mxCell id="63" value="update store" style="rounded=0;whiteSpace=wrap;html=1;fillColor=#27005E;fontColor=#ffffff;strokeColor=#3700CC;" vertex="1" parent="1">
                    <mxGeometry x="2660" y="470" width="190" height="60" as="geometry"/>
                </mxCell>
                <mxCell id="65" value="POST?product=1209/review" style="rounded=0;whiteSpace=wrap;html=1;fillColor=#3D000E;fontColor=#ffffff;strokeColor=#6F0000;" vertex="1" parent="1">
                    <mxGeometry x="2900" y="210" width="190" height="60" as="geometry"/>
                </mxCell>
                <mxCell id="66" value="GET/ ?product = 293/review / {id}" style="rounded=0;whiteSpace=wrap;html=1;fillColor=#3D000E;fontColor=#ffffff;strokeColor=#6F0000;" vertex="1" parent="1">
                    <mxGeometry x="2900" y="290" width="190" height="60" as="geometry"/>
                </mxCell>
                <mxCell id="67" value="DELETE/&amp;nbsp; ? product = 3049/review/ {id}" style="rounded=0;whiteSpace=wrap;html=1;fillColor=#3D000E;fontColor=#ffffff;strokeColor=#6F0000;" vertex="1" parent="1">
                    <mxGeometry x="2900" y="380" width="190" height="60" as="geometry"/>
                </mxCell>
                <mxCell id="68" value="PATCH/ ?product = 3249/ review / {id}" style="rounded=0;whiteSpace=wrap;html=1;fillColor=#3D000E;fontColor=#ffffff;strokeColor=#6F0000;" vertex="1" parent="1">
                    <mxGeometry x="2900" y="470" width="190" height="60" as="geometry"/>
                </mxCell>
                <mxCell id="69" value="Body - { name , description , ...},&lt;br&gt;Query String - {priduct }" style="rounded=0;whiteSpace=wrap;html=1;fillColor=#3D000E;fontColor=#ffffff;strokeColor=#6F0000;" vertex="1" parent="1">
                    <mxGeometry x="3140" y="210" width="190" height="60" as="geometry"/>
                </mxCell>
                <mxCell id="70" value="Params - { id }" style="rounded=0;whiteSpace=wrap;html=1;fillColor=#3D000E;fontColor=#ffffff;strokeColor=#6F0000;" vertex="1" parent="1">
                    <mxGeometry x="3140" y="290" width="190" height="60" as="geometry"/>
                </mxCell>
                <mxCell id="71" value="Params - { id }" style="rounded=0;whiteSpace=wrap;html=1;fillColor=#3D000E;fontColor=#ffffff;strokeColor=#6F0000;" vertex="1" parent="1">
                    <mxGeometry x="3140" y="380" width="190" height="60" as="geometry"/>
                </mxCell>
                <mxCell id="72" value="Body , { }&lt;br&gt;,Params - { id }" style="rounded=0;whiteSpace=wrap;html=1;fillColor=#3D000E;fontColor=#ffffff;strokeColor=#6F0000;" vertex="1" parent="1">
                    <mxGeometry x="3140" y="470" width="190" height="60" as="geometry"/>
                </mxCell>
                <mxCell id="73" value="Create a new review&amp;nbsp;" style="rounded=0;whiteSpace=wrap;html=1;fillColor=#3D000E;fontColor=#ffffff;strokeColor=#6F0000;" vertex="1" parent="1">
                    <mxGeometry x="3370" y="210" width="190" height="60" as="geometry"/>
                </mxCell>
                <mxCell id="74" value="read order&amp;nbsp;" style="rounded=0;whiteSpace=wrap;html=1;fillColor=#3D000E;fontColor=#ffffff;strokeColor=#6F0000;" vertex="1" parent="1">
                    <mxGeometry x="3370" y="290" width="190" height="60" as="geometry"/>
                </mxCell>
                <mxCell id="75" value="delete Order&amp;nbsp;" style="rounded=0;whiteSpace=wrap;html=1;fillColor=#3D000E;fontColor=#ffffff;strokeColor=#6F0000;" vertex="1" parent="1">
                    <mxGeometry x="3370" y="380" width="190" height="60" as="geometry"/>
                </mxCell>
                <mxCell id="76" value="update Order&amp;nbsp;" style="rounded=0;whiteSpace=wrap;html=1;fillColor=#3D000E;fontColor=#ffffff;strokeColor=#6F0000;" vertex="1" parent="1">
                    <mxGeometry x="3370" y="470" width="190" height="60" as="geometry"/>
                </mxCell>
                <mxCell id="82" value="Method and Route" style="rounded=0;whiteSpace=wrap;html=1;fillColor=#76608a;fontColor=#ffffff;strokeColor=#432D57;" vertex="1" parent="1">
                    <mxGeometry x="760" y="120" width="190" height="60" as="geometry"/>
                </mxCell>
                <mxCell id="83" value="Body or Query String&amp;nbsp;" style="rounded=0;whiteSpace=wrap;html=1;fillColor=#76608a;fontColor=#ffffff;strokeColor=#432D57;" vertex="1" parent="1">
                    <mxGeometry x="1000" y="120" width="190" height="60" as="geometry"/>
                </mxCell>
                <mxCell id="84" value="Description&amp;nbsp;" style="rounded=0;whiteSpace=wrap;html=1;fillColor=#76608a;fontColor=#ffffff;strokeColor=#432D57;" vertex="1" parent="1">
                    <mxGeometry x="1230" y="120" width="190" height="60" as="geometry"/>
                </mxCell>
                <mxCell id="85" value="Method and Route" style="rounded=0;whiteSpace=wrap;html=1;fillColor=#76608a;fontColor=#ffffff;strokeColor=#432D57;" vertex="1" parent="1">
                    <mxGeometry x="1470" y="120" width="190" height="60" as="geometry"/>
                </mxCell>
                <mxCell id="86" value="Body or Query String&amp;nbsp;" style="rounded=0;whiteSpace=wrap;html=1;fillColor=#76608a;fontColor=#ffffff;strokeColor=#432D57;" vertex="1" parent="1">
                    <mxGeometry x="1710" y="120" width="190" height="60" as="geometry"/>
                </mxCell>
                <mxCell id="87" value="Description&amp;nbsp;" style="rounded=0;whiteSpace=wrap;html=1;fillColor=#76608a;fontColor=#ffffff;strokeColor=#432D57;" vertex="1" parent="1">
                    <mxGeometry x="1940" y="120" width="190" height="60" as="geometry"/>
                </mxCell>
                <mxCell id="88" value="Method and Route" style="rounded=0;whiteSpace=wrap;html=1;fillColor=#76608a;fontColor=#ffffff;strokeColor=#432D57;" vertex="1" parent="1">
                    <mxGeometry x="2190" y="120" width="190" height="60" as="geometry"/>
                </mxCell>
                <mxCell id="89" value="Body or Query String&amp;nbsp;" style="rounded=0;whiteSpace=wrap;html=1;fillColor=#76608a;fontColor=#ffffff;strokeColor=#432D57;" vertex="1" parent="1">
                    <mxGeometry x="2430" y="120" width="190" height="60" as="geometry"/>
                </mxCell>
                <mxCell id="90" value="Description&amp;nbsp;" style="rounded=0;whiteSpace=wrap;html=1;fillColor=#76608a;fontColor=#ffffff;strokeColor=#432D57;" vertex="1" parent="1">
                    <mxGeometry x="2660" y="120" width="190" height="60" as="geometry"/>
                </mxCell>
                <mxCell id="91" value="Method and Route" style="rounded=0;whiteSpace=wrap;html=1;fillColor=#76608a;fontColor=#ffffff;strokeColor=#432D57;" vertex="1" parent="1">
                    <mxGeometry x="2900" y="110" width="190" height="60" as="geometry"/>
                </mxCell>
                <mxCell id="92" value="Body or Query String&amp;nbsp;" style="rounded=0;whiteSpace=wrap;html=1;fillColor=#76608a;fontColor=#ffffff;strokeColor=#432D57;" vertex="1" parent="1">
                    <mxGeometry x="3140" y="110" width="190" height="60" as="geometry"/>
                </mxCell>
                <mxCell id="93" value="Description&amp;nbsp;" style="rounded=0;whiteSpace=wrap;html=1;fillColor=#76608a;fontColor=#ffffff;strokeColor=#432D57;" vertex="1" parent="1">
                    <mxGeometry x="3370" y="110" width="190" height="60" as="geometry"/>
                </mxCell>
                <mxCell id="95" value="Method and Route" style="rounded=0;whiteSpace=wrap;html=1;fillColor=#76608a;fontColor=#ffffff;strokeColor=#432D57;" vertex="1" parent="1">
                    <mxGeometry x="60" y="120" width="190" height="60" as="geometry"/>
                </mxCell>
                <mxCell id="117" value="User EndPoints" style="rounded=1;whiteSpace=wrap;html=1;fontSize=12;fillColor=#6a00ff;fontColor=#ffffff;strokeColor=#3700CC;" vertex="1" parent="1">
                    <mxGeometry x="290" y="30" width="220" height="60" as="geometry"/>
                </mxCell>
                <mxCell id="118" value="Order EndPoints" style="rounded=1;whiteSpace=wrap;html=1;fontSize=12;fillColor=#6a00ff;fontColor=#ffffff;strokeColor=#3700CC;" vertex="1" parent="1">
                    <mxGeometry x="1000" y="30" width="220" height="60" as="geometry"/>
                </mxCell>
                <mxCell id="119" value="Product EndPoints" style="rounded=1;whiteSpace=wrap;html=1;fontSize=12;fillColor=#6a00ff;fontColor=#ffffff;strokeColor=#3700CC;" vertex="1" parent="1">
                    <mxGeometry x="1710" y="30" width="220" height="60" as="geometry"/>
                </mxCell>
                <mxCell id="120" value="Store EndPoints" style="rounded=1;whiteSpace=wrap;html=1;fontSize=12;fillColor=#6a00ff;fontColor=#ffffff;strokeColor=#3700CC;" vertex="1" parent="1">
                    <mxGeometry x="2430" y="30" width="220" height="60" as="geometry"/>
                </mxCell>
                <mxCell id="122" value="Review EndPoints" style="rounded=1;whiteSpace=wrap;html=1;fontSize=12;fillColor=#6a00ff;fontColor=#ffffff;strokeColor=#3700CC;" vertex="1" parent="1">
                    <mxGeometry x="3150" y="30" width="220" height="60" as="geometry"/>
                </mxCell>
            </root>
        </mxGraphModel>
    </diagram>
</mxfile>